<?xml version="1.0" encoding="utf-8"?>
<svg version="1.1" xmlns:xlink="http://www.w3.org/1999/xlink" width="217px" height="49px" xmlns="http://www.w3.org/2000/svg">
  <defs>
    <mask fill="white" id="clip4">
      <path d="M 29.5909090909091 49  C 13.0200000000001 49  0 38.2200000000001  0 24.5  C 0 10.7799999999999  13.0200000000001 0  29.5909090909091 0  L 104.706293706294 0  L 116.846153846154 0  L 187.409090909091 0  C 203.98 0  217 10.7799999999999  217 24.5  C 217 38.2200000000001  203.98 49  187.409090909091 49  L 29.5909090909091 49  Z " fill-rule="evenodd" />
    </mask>
  </defs>
  <g transform="matrix(1 0 0 1 -493 -1092 )">
    <path d="M 29.5909090909091 49  C 13.0200000000001 49  0 38.2200000000001  0 24.5  C 0 10.7799999999999  13.0200000000001 0  29.5909090909091 0  L 104.706293706294 0  L 116.846153846154 0  L 187.409090909091 0  C 203.98 0  217 10.7799999999999  217 24.5  C 217 38.2200000000001  203.98 49  187.409090909091 49  L 29.5909090909091 49  Z " fill-rule="nonzero" fill="#ffffff" stroke="none" fill-opacity="0" transform="matrix(1 0 0 1 493 1092 )" />
    <path d="M 29.5909090909091 49  C 13.0200000000001 49  0 38.2200000000001  0 24.5  C 0 10.7799999999999  13.0200000000001 0  29.5909090909091 0  L 104.706293706294 0  L 116.846153846154 0  L 187.409090909091 0  C 203.98 0  217 10.7799999999999  217 24.5  C 217 38.2200000000001  203.98 49  187.409090909091 49  L 29.5909090909091 49  Z " stroke-width="2" stroke="#555555" fill="none" transform="matrix(1 0 0 1 493 1092 )" mask="url(#clip4)" />
  </g>
</svg>