<?xml version="1.0" encoding="utf-8"?>
<svg version="1.1" xmlns:xlink="http://www.w3.org/1999/xlink" width="25px" height="10px" xmlns="http://www.w3.org/2000/svg">
  <g transform="matrix(1 0 0 1 -662 -1110 )">
    <path d="M 24.8553240740741 4.66840052015605  C 24.951774691358 4.75509319462505  25 4.85478977026441  25 4.96749024707412  C 25 5.08885999133073  24.951774691358 5.19289120069354  24.8553240740741 5.27958387516255  L 19.2997685185185 9.88296488946684  C 19.1454475308642 10.0043346337234  18.9766589506173 10.0303424360642  18.7934027777778 9.96098829648895  C 18.6101466049383 9.88296488946684  18.5185185185185 9.75726051148678  18.5185185185185 9.58387516254876  L 18.5185185185185 6.67100130039012  L 0.462962962962963 6.67100130039012  C 0.327932098765432 6.67100130039012  0.217013888888889 6.63198959687906  0.130208333333333 6.55396618985696  C 0.0434027777777778 6.47594278283485  0 6.37624620719549  0 6.25487646293888  L 0 3.75812743823147  C 0 3.63675769397486  0.0434027777777778 3.5370611183355  0.130208333333333 3.45903771131339  C 0.217013888888889 3.38101430429129  0.327932098765432 3.34200260078023  0.462962962962963 3.34200260078023  L 18.5185185185185 3.34200260078023  L 18.5185185185185 0.429128738621587  C 18.5185185185185 0.247074122236671  18.6101466049383 0.12136974425661  18.7934027777778 0.0520156046814046  C 18.9766589506173 -0.0173385348938027  19.1454475308642 0.00433463372344955  19.2997685185185 0.11703511053316  L 24.8553240740741 4.66840052015605  Z " fill-rule="nonzero" fill="#555555" stroke="none" transform="matrix(1 0 0 1 662 1110 )" />
  </g>
</svg>