<?xml version="1.0" encoding="utf-8"?>
<svg version="1.1" xmlns:xlink="http://www.w3.org/1999/xlink" width="213px" height="162px" xmlns="http://www.w3.org/2000/svg">
  <g transform="matrix(1 0 0 1 -731 -371 )">
    <path d="M 64.7875 32.90625  C 68.9291666666667 36.84375  71 41.625  71 47.25  C 71 52.875  68.9291666666667 57.65625  64.7875 61.59375  C 60.6458333333333 65.53125  55.6166666666667 67.5  49.7 67.5  C 43.7833333333333 67.5  38.7541666666667 65.53125  34.6125 61.59375  C 30.4708333333333 57.65625  28.4 52.875  28.4 47.25  C 28.4 41.625  30.4708333333333 36.84375  34.6125 32.90625  C 38.7541666666667 28.96875  43.7833333333333 27  49.7 27  C 55.6166666666667 27  60.6458333333333 28.96875  64.7875 32.90625  Z M 138.45 43.875  L 184 87.75  L 184 135  L 29 135  L 29 114.75  L 63.9 81  L 81.65 97.875  L 138.45 43.875  Z M 197.74609375 14.501953125  C 197.043489583333 13.833984375  196.211458333333 13.5  195.25 14  L 17.75 14  C 16.7885416666667 13.5  15.9565104166667 13.833984375  15.25390625 14.501953125  C 14.5513020833333 15.169921875  14.2 15.9609375  15 16.875  L 15 145.125  C 14.2 146.0390625  14.5513020833333 146.830078125  15.25390625 147.498046875  C 15.9565104166667 148.166015625  16.7885416666667 148.5  17.75 148  L 195.25 148  C 196.211458333333 148.5  197.043489583333 148.166015625  197.74609375 147.498046875  C 198.448697916667 146.830078125  198.8 146.0390625  198 145.125  L 198 16.875  C 198.8 15.9609375  198.448697916667 15.169921875  197.74609375 14.501953125  Z M 207.7859375 4.95703125000001  C 211.261979166667 8.26171874999999  213 12.234375  213 16.875  L 213 145.125  C 213 149.765625  211.261979166667 153.73828125  207.7859375 157.04296875  C 204.309895833333 160.34765625  200.13125 162  195.25 162  L 17.75 162  C 12.86875 162  8.69010416666667 160.34765625  5.2140625 157.04296875  C 1.73802083333333 153.73828125  0 149.765625  0 145.125  L 0 16.875  C 0 12.234375  1.73802083333333 8.26171874999999  5.2140625 4.95703125000001  C 8.69010416666667 1.65234374999998  12.86875 0  17.75 0  L 195.25 0  C 200.13125 0  204.309895833333 1.65234374999998  207.7859375 4.95703125000001  Z " fill-rule="nonzero" fill="#7f7f7f" stroke="none" transform="matrix(1 0 0 1 731 371 )" />
  </g>
</svg>