<?xml version="1.0" encoding="utf-8"?>
<svg version="1.1" xmlns:xlink="http://www.w3.org/1999/xlink" width="24px" height="22px" xmlns="http://www.w3.org/2000/svg">
  <defs>
    <mask fill="white" id="clip5">
      <path d="M 12.5892857142857 21.7421875  C 12.4285714285714 21.9140625  12.2321428571429 22  12 22  C 11.7678571428571 22  11.5714285714286 21.9140625  11.4107142857143 21.7421875  L 3.05357142857143 13.1197916666667  C 2.96428571428571 13.0434027777778  2.84151785714286 12.9192708333333  2.68526785714286 12.7473958333333  C 2.52901785714286 12.5755208333333  2.28125 12.2628038194444  1.94196428571429 11.8092447916667  C 1.60267857142857 11.3556857638889  1.29910714285714 10.8901909722222  1.03125 10.4127604166667  C 0.763392857142857 9.93532986111111  0.524553571428572 9.35763888888889  0.314732142857143 8.6796875  C 0.104910714285714 8.00173611111111  0 7.34288194444444  0 6.703125  C 0 4.60243055555555  0.566964285714286 2.96006944444444  1.70089285714286 1.77604166666667  C 2.83482142857143 0.592013888888889  4.40178571428571 0  6.40178571428572 0  C 6.95535714285714 0  7.52008928571428 0.102647569444443  8.09598214285714 0.307942708333334  C 8.671875 0.51323784722222  9.20758928571428 0.790147569444443  9.703125 1.138671875  C 10.1986607142857 1.48719618055555  10.625 1.81423611111111  10.9821428571429 2.11979166666667  C 11.3392857142857 2.42534722222222  11.6785714285714 2.75  12 3.09375  C 12.3214285714286 2.75  12.6607142857143 2.42534722222222  13.0178571428571 2.11979166666667  C 13.375 1.81423611111111  13.8013392857143 1.48719618055555  14.296875 1.138671875  C 14.7924107142857 0.790147569444443  15.328125 0.51323784722222  15.9040178571429 0.307942708333334  C 16.4799107142857 0.102647569444443  17.0446428571429 0  17.5982142857143 0  C 19.5982142857143 0  21.1651785714286 0.592013888888889  22.2991071428571 1.77604166666667  C 23.4330357142857 2.96006944444444  24 4.60243055555555  24 6.703125  C 24 8.81336805555555  22.9776785714286 10.9618055555556  20.9330357142857 13.1484375  L 12.5892857142857 21.7421875  Z " fill-rule="evenodd" />
    </mask>
  </defs>
  <g transform="matrix(1 0 0 1 -1065 -1557 )">
    <path d="M 12.5892857142857 21.7421875  C 12.4285714285714 21.9140625  12.2321428571429 22  12 22  C 11.7678571428571 22  11.5714285714286 21.9140625  11.4107142857143 21.7421875  L 3.05357142857143 13.1197916666667  C 2.96428571428571 13.0434027777778  2.84151785714286 12.9192708333333  2.68526785714286 12.7473958333333  C 2.52901785714286 12.5755208333333  2.28125 12.2628038194444  1.94196428571429 11.8092447916667  C 1.60267857142857 11.3556857638889  1.29910714285714 10.8901909722222  1.03125 10.4127604166667  C 0.763392857142857 9.93532986111111  0.524553571428572 9.35763888888889  0.314732142857143 8.6796875  C 0.104910714285714 8.00173611111111  0 7.34288194444444  0 6.703125  C 0 4.60243055555555  0.566964285714286 2.96006944444444  1.70089285714286 1.77604166666667  C 2.83482142857143 0.592013888888889  4.40178571428571 0  6.40178571428572 0  C 6.95535714285714 0  7.52008928571428 0.102647569444443  8.09598214285714 0.307942708333334  C 8.671875 0.51323784722222  9.20758928571428 0.790147569444443  9.703125 1.138671875  C 10.1986607142857 1.48719618055555  10.625 1.81423611111111  10.9821428571429 2.11979166666667  C 11.3392857142857 2.42534722222222  11.6785714285714 2.75  12 3.09375  C 12.3214285714286 2.75  12.6607142857143 2.42534722222222  13.0178571428571 2.11979166666667  C 13.375 1.81423611111111  13.8013392857143 1.48719618055555  14.296875 1.138671875  C 14.7924107142857 0.790147569444443  15.328125 0.51323784722222  15.9040178571429 0.307942708333334  C 16.4799107142857 0.102647569444443  17.0446428571429 0  17.5982142857143 0  C 19.5982142857143 0  21.1651785714286 0.592013888888889  22.2991071428571 1.77604166666667  C 23.4330357142857 2.96006944444444  24 4.60243055555555  24 6.703125  C 24 8.81336805555555  22.9776785714286 10.9618055555556  20.9330357142857 13.1484375  L 12.5892857142857 21.7421875  Z " fill-rule="nonzero" fill="#ffffff" stroke="none" fill-opacity="0" transform="matrix(1 0 0 1 1065 1557 )" />
    <path d="M 12.5892857142857 21.7421875  C 12.4285714285714 21.9140625  12.2321428571429 22  12 22  C 11.7678571428571 22  11.5714285714286 21.9140625  11.4107142857143 21.7421875  L 3.05357142857143 13.1197916666667  C 2.96428571428571 13.0434027777778  2.84151785714286 12.9192708333333  2.68526785714286 12.7473958333333  C 2.52901785714286 12.5755208333333  2.28125 12.2628038194444  1.94196428571429 11.8092447916667  C 1.60267857142857 11.3556857638889  1.29910714285714 10.8901909722222  1.03125 10.4127604166667  C 0.763392857142857 9.93532986111111  0.524553571428572 9.35763888888889  0.314732142857143 8.6796875  C 0.104910714285714 8.00173611111111  0 7.34288194444444  0 6.703125  C 0 4.60243055555555  0.566964285714286 2.96006944444444  1.70089285714286 1.77604166666667  C 2.83482142857143 0.592013888888889  4.40178571428571 0  6.40178571428572 0  C 6.95535714285714 0  7.52008928571428 0.102647569444443  8.09598214285714 0.307942708333334  C 8.671875 0.51323784722222  9.20758928571428 0.790147569444443  9.703125 1.138671875  C 10.1986607142857 1.48719618055555  10.625 1.81423611111111  10.9821428571429 2.11979166666667  C 11.3392857142857 2.42534722222222  11.6785714285714 2.75  12 3.09375  C 12.3214285714286 2.75  12.6607142857143 2.42534722222222  13.0178571428571 2.11979166666667  C 13.375 1.81423611111111  13.8013392857143 1.48719618055555  14.296875 1.138671875  C 14.7924107142857 0.790147569444443  15.328125 0.51323784722222  15.9040178571429 0.307942708333334  C 16.4799107142857 0.102647569444443  17.0446428571429 0  17.5982142857143 0  C 19.5982142857143 0  21.1651785714286 0.592013888888889  22.2991071428571 1.77604166666667  C 23.4330357142857 2.96006944444444  24 4.60243055555555  24 6.703125  C 24 8.81336805555555  22.9776785714286 10.9618055555556  20.9330357142857 13.1484375  L 12.5892857142857 21.7421875  Z " stroke-width="4" stroke="#333333" fill="none" transform="matrix(1 0 0 1 1065 1557 )" mask="url(#clip5)" />
  </g>
</svg>