<?xml version="1.0" encoding="utf-8"?>
<svg version="1.1" xmlns:xlink="http://www.w3.org/1999/xlink" width="25px" height="20px" xmlns="http://www.w3.org/2000/svg">
  <g transform="matrix(1 0 0 1 -267 -932 )">
    <path d="M 6.77490234375 5.56954436450839  C 6.97835286458333 5.37370103916866  7.080078125 5.1119104716227  7.080078125 4.7841726618705  C 7.080078125 4.4564348521183  6.97835286458333 4.19264588329336  6.77490234375 3.99280575539568  C 6.57145182291667 3.792965627498  6.30289713541667 3.69304556354916  5.96923828125 3.69304556354916  C 5.61930338541667 3.69304556354916  5.31005859375 3.79496402877698  5.04150390625 3.99880095923261  C 4.77294921875 4.20263788968825  4.638671875 4.46442845723421  4.638671875 4.7841726618705  C 4.638671875 5.09592326139089  4.77294921875 5.3537170263789  5.04150390625 5.55755395683453  C 5.31005859375 5.76139088729017  5.61930338541667 5.86330935251798  5.96923828125 5.86330935251798  C 6.30289713541667 5.86330935251798  6.57145182291667 5.76538768984812  6.77490234375 5.56954436450839  Z M 15.838623046875 11.4748201438849  C 16.046142578125 11.2989608313349  16.14990234375 11.0951239008793  16.14990234375 10.863309352518  C 16.14990234375 10.6394884092726  16.046142578125 10.4396482813749  15.838623046875 10.2637889688249  C 15.631103515625 10.087929656275  15.3645833333333 10  15.0390625 10  C 14.8193359375 10  14.617919921875 10.089928057554  14.434814453125 10.2697841726619  C 14.251708984375 10.4496402877698  14.16015625 10.6474820143885  14.16015625 10.863309352518  C 14.16015625 11.0871302957634  14.251708984375 11.28896882494  14.434814453125 11.468824940048  C 14.617919921875 11.6486810551559  14.8193359375 11.7386091127098  15.0390625 11.7386091127098  C 15.3645833333333 11.7386091127098  15.631103515625 11.6506794564349  15.838623046875 11.4748201438849  Z M 12.969970703125 5.56954436450839  C 13.1693522135417 5.37370103916866  13.26904296875 5.1119104716227  13.26904296875 4.7841726618705  C 13.26904296875 4.4564348521183  13.1693522135417 4.19264588329336  12.969970703125 3.99280575539568  C 12.7705891927083 3.792965627498  12.5040690104167 3.69304556354916  12.17041015625 3.69304556354916  C 11.8204752604167 3.69304556354916  11.51123046875 3.79496402877698  11.24267578125 3.99880095923261  C 10.97412109375 4.20263788968825  10.83984375 4.46442845723421  10.83984375 4.7841726618705  C 10.83984375 5.09592326139089  10.97412109375 5.3537170263789  11.24267578125 5.55755395683453  C 11.51123046875 5.76139088729017  11.8204752604167 5.86330935251798  12.17041015625 5.86330935251798  C 12.5040690104167 5.86330935251798  12.7705891927083 5.76538768984812  12.969970703125 5.56954436450839  Z M 20.703125 11.4748201438849  C 20.9147135416667 11.2989608313349  21.0205078125 11.0951239008793  21.0205078125 10.863309352518  C 21.0205078125 10.6394884092726  20.9147135416667 10.4396482813749  20.703125 10.2637889688249  C 20.4915364583333 10.087929656275  20.22705078125 10  19.90966796875 10  C 19.68994140625 10  19.488525390625 10.089928057554  19.305419921875 10.2697841726619  C 19.122314453125 10.4496402877698  19.03076171875 10.6474820143885  19.03076171875 10.863309352518  C 19.03076171875 11.0871302957634  19.122314453125 11.28896882494  19.305419921875 11.468824940048  C 19.488525390625 11.6486810551559  19.68994140625 11.7386091127098  19.90966796875 11.7386091127098  C 20.22705078125 11.7386091127098  20.4915364583333 11.6506794564349  20.703125 11.4748201438849  Z M 16.107177734375 2.97961630695444  C 16.9657389322917 3.91087130295763  17.5211588541667 4.95203836930456  17.7734375 6.1031175059952  C 17.5211588541667 6.07114308553157  17.236328125 6.05515587529976  16.9189453125 6.05515587529976  C 15.5436197916667 6.05515587529976  14.2781575520833 6.36290967226219  13.12255859375 6.97841726618705  C 11.9669596354167 7.59392486011191  11.0575358072917 8.42725819344524  10.394287109375 9.47841726618705  C 9.73103841145833 10.5295763389289  9.3994140625 11.6786570743405  9.3994140625 12.9256594724221  C 9.3994140625 13.5491606714628  9.49300130208333 14.1566746602718  9.68017578125 14.7482014388489  C 9.39534505208333 14.7721822541966  9.11865234375 14.7841726618705  8.85009765625 14.7841726618705  C 8.63850911458333 14.7841726618705  8.43505859375 14.7781774580336  8.23974609375 14.7661870503597  C 8.04443359375 14.7541966426859  7.82063802083333 14.7282174260592  7.568359375 14.6882494004796  C 7.31608072916667 14.6482813749001  7.135009765625 14.6203037569944  7.025146484375 14.6043165467626  C 6.915283203125 14.5883293365308  6.69352213541667 14.5463629096723  6.35986328125 14.4784172661871  C 6.02620442708333 14.4104716227018  5.82275390625 14.3685051958433  5.74951171875 14.3525179856115  L 2.6611328125 15.8752997601918  L 3.5400390625 13.2613908872902  C 1.18001302083333 11.638689048761  0 9.68025579536371  0 7.38609112709832  C 0 6.03517186250999  0.396728515625 4.79216626698641  1.190185546875 3.65707434052758  C 1.983642578125 2.52198241406874  3.057861328125 1.62869704236611  4.412841796875 0.977218225419665  C 5.767822265625 0.32573940847322  7.24690755208333 0  8.85009765625 0  C 10.2823893229167 0  11.6353352864583 0.263788968824941  12.908935546875 0.79136690647482  C 14.1825358072917 1.3189448441247  15.2486165364583 2.04836131095124  16.107177734375 2.97961630695444  Z M 23.956298828125 9.67026378896882  C 24.652099609375 10.6414868105516  25 11.6946442845723  25 12.8297362110312  C 25 13.7649880095923  24.7212727864583 14.658273381295  24.163818359375 15.5095923261391  C 23.6063639322917 16.3609112709832  22.8515625 17.1342925659472  21.8994140625 17.8297362110312  L 22.57080078125 20  L 20.1416015625 18.6930455635492  C 18.9208984375 18.9888089528377  18.0338541666667 19.136690647482  17.48046875 19.136690647482  C 16.1051432291667 19.136690647482  14.8396809895833 18.8549160671463  13.68408203125 18.2913669064748  C 12.5284830729167 17.7278177458034  11.6190592447917 16.9624300559552  10.955810546875 15.9952038369305  C 10.2925618489583 15.0279776179057  9.9609375 13.9728217426059  9.9609375 12.8297362110312  C 9.9609375 11.6866506794564  10.2925618489583 10.6314948041567  10.955810546875 9.66426858513189  C 11.6190592447917 8.69704236610711  12.5284830729167 7.93165467625899  13.68408203125 7.36810551558753  C 14.8396809895833 6.80455635491607  16.1051432291667 6.52278177458034  17.48046875 6.52278177458034  C 18.7906901041667 6.52278177458034  20.0236002604167 6.80455635491607  21.17919921875 7.36810551558753  C 22.3347981770833 7.93165467625899  23.260498046875 8.69904076738609  23.956298828125 9.67026378896882  Z " fill-rule="nonzero" fill="#333333" stroke="none" transform="matrix(1 0 0 1 267 932 )" />
  </g>
</svg>