<?xml version="1.0" encoding="utf-8"?>
<svg version="1.1" xmlns:xlink="http://www.w3.org/1999/xlink" width="40px" height="40px" xmlns="http://www.w3.org/2000/svg">
  <g transform="matrix(1 0 0 1 -842 -393 )">
    <path d="M 862 394  C 872.64 394  881 402.36  881 413  C 881 423.64  872.64 432  862 432  C 851.36 432  843 423.64  843 413  C 843 402.36  851.36 394  862 394  Z " fill-rule="nonzero" fill="#ffffff" stroke="none" fill-opacity="0" />
    <path d="M 862 394  C 872.64 394  881 402.36  881 413  C 881 423.64  872.64 432  862 432  C 851.36 432  843 423.64  843 413  C 843 402.36  851.36 394  862 394  Z " stroke-width="2" stroke="#333333" fill="none" />
  </g>
</svg>