<?xml version="1.0" encoding="utf-8"?>
<svg version="1.1" xmlns:xlink="http://www.w3.org/1999/xlink" width="175px" height="28px" xmlns="http://www.w3.org/2000/svg">
  <defs>
    <mask fill="white" id="clip11">
      <path d="M 0 28  L 0 0  L 80.8423913043478 0  L 114.130434782609 0  L 175 0  L 175 28  L 0 28  Z " fill-rule="evenodd" />
    </mask>
  </defs>
  <g transform="matrix(1 0 0 1 -641 -505 )">
    <path d="M 0 28  L 0 0  L 80.8423913043478 0  L 114.130434782609 0  L 175 0  L 175 28  L 0 28  Z " fill-rule="nonzero" fill="#ffffff" stroke="none" transform="matrix(1 0 0 1 641 505 )" />
    <path d="M 0 28  L 0 0  L 80.8423913043478 0  L 114.130434782609 0  L 175 0  L 175 28  L 0 28  Z " stroke-width="2" stroke="#797979" fill="none" transform="matrix(1 0 0 1 641 505 )" mask="url(#clip11)" />
  </g>
</svg>