<?xml version="1.0" encoding="utf-8"?>
<svg version="1.1" xmlns:xlink="http://www.w3.org/1999/xlink" width="187px" height="28px" xmlns="http://www.w3.org/2000/svg">
  <defs>
    <mask fill="white" id="clip12">
      <path d="M 0 28  L 0 0  L 86.3858695652173 0  L 118.433333333333 0  L 121.95652173913 0  L 187 0  L 187 28  L 146.483333333333 28  L 0 28  Z " fill-rule="evenodd" />
    </mask>
  </defs>
  <g transform="matrix(1 0 0 1 -833 -505 )">
    <path d="M 0 28  L 0 0  L 86.3858695652173 0  L 118.433333333333 0  L 121.95652173913 0  L 187 0  L 187 28  L 146.483333333333 28  L 0 28  Z " fill-rule="nonzero" fill="#666666" stroke="none" transform="matrix(1 0 0 1 833 505 )" />
    <path d="M 0 28  L 0 0  L 86.3858695652173 0  L 118.433333333333 0  L 121.95652173913 0  L 187 0  L 187 28  L 146.483333333333 28  L 0 28  Z " stroke-width="2" stroke="#666666" fill="none" transform="matrix(1 0 0 1 833 505 )" mask="url(#clip12)" />
  </g>
</svg>