<?xml version="1.0" encoding="utf-8"?>
<svg version="1.1" xmlns:xlink="http://www.w3.org/1999/xlink" width="13px" height="11px" xmlns="http://www.w3.org/2000/svg">
  <g transform="matrix(1 0 0 1 -994 -234 )">
    <path d="M 12.5625 3.94391934467549  C 12.8541666666667 3.98550724637681  13 4.09178743961353  13 4.26275992438563  C 13 4.36441923965553  12.9322916666667 4.47532031085906  12.796875 4.59546313799622  L 9.9609375 7.04914933837429  L 10.6328125 10.5148078134846  C 10.6380208333333 10.5471539592523  10.640625 10.5933627389204  10.640625 10.653434152489  C 10.640625 10.7504725897921  10.61328125 10.832493173703  10.55859375 10.8994959042218  C 10.50390625 10.9664986347406  10.4244791666667 11  10.3203125 11  C 10.2213541666667 11  10.1171875 10.9722747321991  10.0078125 10.9168241965974  L 6.5 9.28103339634531  L 2.9921875 10.9168241965974  C 2.87760416666667 10.9722747321991  2.7734375 11  2.6796875 11  C 2.5703125 11  2.48828125 10.9664986347406  2.43359375 10.8994959042218  C 2.37890625 10.832493173703  2.3515625 10.7504725897921  2.3515625 10.653434152489  C 2.3515625 10.6257088846881  2.35677083333333 10.57950010502  2.3671875 10.5148078134846  L 3.0390625 7.04914933837429  L 0.1953125 4.59546313799622  C 0.0651041666666667 4.47069943289225  0 4.35979836168872  0 4.26275992438563  C 0 4.09178743961353  0.145833333333333 3.98550724637681  0.4375 3.94391934467549  L 4.359375 3.43793320730939  L 6.1171875 0.284183994959042  C 6.21614583333333 0.0947279983196802  6.34375 0  6.5 0  C 6.65625 0  6.78385416666667 0.0947279983196802  6.8828125 0.284183994959042  L 8.640625 3.43793320730939  L 12.5625 3.94391934467549  Z " fill-rule="nonzero" fill="#000000" stroke="none" transform="matrix(1 0 0 1 994 234 )" />
  </g>
</svg>