<?xml version="1.0" encoding="utf-8"?>
<svg version="1.1" xmlns:xlink="http://www.w3.org/1999/xlink" width="13px" height="11px" xmlns="http://www.w3.org/2000/svg">
  <g transform="matrix(1 0 0 1 -1046 -234 )">
    <path d="M 8.8828125 6.73724007561437  L 9.265625 6.411468178954  L 11.2734375 4.67863894139886  L 8.4921875 4.3182104599874  L 7.9765625 4.24889729048519  L 7.7421875 3.83301827347196  L 6.5 1.60113421550094  L 6.5 8.27599243856333  L 6.9609375 8.49086326402016  L 9.4453125 9.65532451165721  L 8.9765625 7.19470699432892  L 8.8828125 6.73724007561437  Z M 12.984375 4.1830497794581  C 13.03125 4.31012392354547  12.96875 4.44759504305818  12.796875 4.59546313799622  L 9.9609375 7.04914933837429  L 10.6328125 10.5148078134846  C 10.6588541666667 10.6672967863894  10.6432291666667 10.7862843940349  10.5859375 10.8717706364209  C 10.5286458333333 10.957256878807  10.4401041666667 11  10.3203125 11  C 10.2317708333333 11  10.1276041666667 10.9722747321991  10.0078125 10.9168241965974  L 6.5 9.28103339634531  L 2.9921875 10.9168241965974  C 2.87239583333333 10.9722747321991  2.76822916666667 11  2.6796875 11  C 2.55989583333333 11  2.47135416666667 10.957256878807  2.4140625 10.8717706364209  C 2.35677083333333 10.7862843940349  2.34114583333333 10.6672967863894  2.3671875 10.5148078134846  L 3.0390625 7.04914933837429  L 0.1953125 4.59546313799622  C 0.0286458333333333 4.44759504305818  -0.03125 4.31012392354547  0.015625 4.1830497794581  C 0.0625 4.05597563537072  0.203125 3.97626549044318  0.4375 3.94391934467549  L 4.359375 3.43793320730939  L 6.1171875 0.284183994959042  C 6.22135416666667 0.0947279983196802  6.34895833333333 0  6.5 0  C 6.64583333333333 0  6.7734375 0.0947279983196802  6.8828125 0.284183994959042  L 8.640625 3.43793320730939  L 12.5625 3.94391934467549  C 12.796875 3.97626549044318  12.9375 4.05597563537072  12.984375 4.1830497794581  Z " fill-rule="nonzero" fill="#000000" stroke="none" transform="matrix(1 0 0 1 1046 234 )" />
  </g>
</svg>