<?xml version="1.0" encoding="utf-8"?>
<svg version="1.1" xmlns:xlink="http://www.w3.org/1999/xlink" width="71px" height="46px" xmlns="http://www.w3.org/2000/svg">
  <g transform="matrix(1 0 0 1 -282 -844 )">
    <path d="M 69.4547991071428 1.3296875  C 70.4849330357143 1.73697916666666  71 2.44375  71 3.45  L 71 42.55  C 71 43.55625  70.4849330357143 44.2630208333333  69.4547991071428 44.6703125  C 69.1114211309524 44.7901041666667  68.78125 44.85  68.4642857142857 44.85  C 67.7511160714286 44.85  67.1568080357143 44.6223958333333  66.6813616071428 44.1671875  L 50.7142857142857 29.684375  L 50.7142857142857 35.65  C 50.7142857142857 38.5010416666667  49.5983072916667 40.9388020833333  47.3663504464286 42.96328125  C 45.1343936011905 44.9877604166667  42.4468005952381 46  39.3035714285714 46  L 11.4107142857143 46  C 8.26748511904762 46  5.57989211309524 44.9877604166667  3.34793526785714 42.96328125  C 1.11597842261905 40.9388020833333  0 38.5010416666667  0 35.65  L 0 10.35  C 0 7.49895833333333  1.11597842261905 5.06119791666667  3.34793526785714 3.03671875  C 5.57989211309524 1.01223958333333  8.26748511904762 0  11.4107142857143 0  L 39.3035714285714 0  C 42.4468005952381 0  45.1343936011905 1.01223958333333  47.3663504464286 3.03671875  C 49.5983072916667 5.06119791666667  50.7142857142857 7.49895833333333  50.7142857142857 10.35  L 50.7142857142857 16.2796875  L 66.6813616071428 1.8328125  C 67.1568080357143 1.37760416666666  67.7511160714286 1.15  68.4642857142857 1.15  C 68.78125 1.15  69.1114211309524 1.20989583333333  69.4547991071428 1.3296875  Z " fill-rule="nonzero" fill="#f2f2f2" stroke="none" transform="matrix(1 0 0 1 282 844 )" />
  </g>
</svg>