<?xml version="1.0" encoding="utf-8"?>
<svg version="1.1" xmlns:xlink="http://www.w3.org/1999/xlink" width="19px" height="17px" xmlns="http://www.w3.org/2000/svg">
  <g transform="matrix(1 0 0 1 -110 -1346 )">
    <path d="M 18.3605769230769 6.09514807813485  C 18.786858974359 6.15942028985507  19 6.32367149758454  19 6.58790170132325  C 19 6.74501155219492  18.9010416666667 6.91640411678219  18.703125 7.10207939508507  L 14.5582932692308 10.8941398865785  L 15.5402644230769 16.2501575299307  C 15.5478766025641 16.3001470279353  15.5516826923077 16.3715605965133  15.5516826923077 16.4643982356648  C 15.5516826923077 16.6143667296786  15.51171875 16.7411258139046  15.4317908653846 16.8446754883428  C 15.3518629807692 16.9482251627809  15.2357772435897 17  15.0835336538462 17  C 14.9389022435897 17  14.7866586538462 16.9571518588532  14.6268028846154 16.8714555765595  L 9.5 14.3434152488973  L 4.37319711538462 16.8714555765595  C 4.20572916666667 16.9571518588532  4.05348557692308 17  3.91646634615385 17  C 3.75661057692308 17  3.63671875 16.9482251627809  3.55679086538462 16.8446754883428  C 3.47686298076923 16.7411258139046  3.43689903846154 16.6143667296786  3.43689903846154 16.4643982356648  C 3.43689903846154 16.421550094518  3.44451121794872 16.3501365259399  3.45973557692308 16.2501575299307  L 4.44170673076923 10.8941398865785  L 0.285456730769231 7.10207939508507  C 0.0951522435897436 6.90926275992439  0 6.73787019533711  0 6.58790170132325  C 0 6.32367149758454  0.213141025641026 6.15942028985507  0.639423076923077 6.09514807813485  L 6.37139423076923 5.31316950220542  L 8.94050480769231 0.439193446754883  C 9.08513621794872 0.14639781558496  9.27163461538462 0  9.5 0  C 9.72836538461538 0  9.91486378205128 0.14639781558496  10.0594951923077 0.439193446754883  L 12.6286057692308 5.31316950220542  L 18.3605769230769 6.09514807813485  Z " fill-rule="nonzero" fill="#000000" stroke="none" transform="matrix(1 0 0 1 110 1346 )" />
  </g>
</svg>