<?xml version="1.0" encoding="utf-8"?>
<svg version="1.1" xmlns:xlink="http://www.w3.org/1999/xlink" width="15px" height="16px" xmlns="http://www.w3.org/2000/svg">
  <g transform="matrix(1 0 0 1 -532 -1480 )">
    <path d="M 11.62109375 6.66666666666667  C 11.62109375 6.84722222222222  11.5592447916667 7.00347222222222  11.435546875 7.13541666666667  L 7.314453125 11.53125  C 7.19075520833333 11.6631944444444  7.04427083333333 11.7291666666667  6.875 11.7291666666667  C 6.70572916666667 11.7291666666667  6.55924479166667 11.6631944444444  6.435546875 11.53125  L 3.564453125 8.46875  C 3.44075520833333 8.33680555555555  3.37890625 8.18055555555555  3.37890625 8  C 3.37890625 7.81944444444444  3.44075520833333 7.66319444444444  3.564453125 7.53125  L 4.560546875 6.46875  C 4.68424479166667 6.33680555555556  4.83072916666667 6.27083333333333  5 6.27083333333333  C 5.16927083333333 6.27083333333333  5.31575520833333 6.33680555555556  5.439453125 6.46875  L 6.875 8  L 9.560546875 5.13541666666667  C 9.68424479166667 5.00347222222222  9.83072916666667 4.9375  10 4.9375  C 10.1692708333333 4.9375  10.3157552083333 5.00347222222222  10.439453125 5.13541666666667  L 11.435546875 6.19791666666667  C 11.5592447916667 6.32986111111111  11.62109375 6.48611111111111  11.62109375 6.66666666666667  Z M 12.099609375 10.84375  C 12.5748697916667 9.97569444444444  12.8125 9.02777777777778  12.8125 8  C 12.8125 6.97222222222222  12.5748697916667 6.02430555555556  12.099609375 5.15625  C 11.6243489583333 4.28819444444444  10.9798177083333 3.60069444444444  10.166015625 3.09375  C 9.35221354166667 2.58680555555556  8.46354166666667 2.33333333333333  7.5 2.33333333333333  C 6.53645833333333 2.33333333333333  5.64778645833333 2.58680555555556  4.833984375 3.09375  C 4.02018229166667 3.60069444444444  3.37565104166667 4.28819444444444  2.900390625 5.15625  C 2.42513020833333 6.02430555555556  2.1875 6.97222222222222  2.1875 8  C 2.1875 9.02777777777778  2.42513020833333 9.97569444444444  2.900390625 10.84375  C 3.37565104166667 11.7118055555556  4.02018229166667 12.3993055555556  4.833984375 12.90625  C 5.64778645833333 13.4131944444444  6.53645833333333 13.6666666666667  7.5 13.6666666666667  C 8.46354166666667 13.6666666666667  9.35221354166667 13.4131944444444  10.166015625 12.90625  C 10.9798177083333 12.3993055555556  11.6243489583333 11.7118055555556  12.099609375 10.84375  Z M 13.994140625 3.984375  C 14.6647135416667 5.21006944444444  15 6.54861111111111  15 8  C 15 9.45138888888889  14.6647135416667 10.7899305555556  13.994140625 12.015625  C 13.3235677083333 13.2413194444444  12.4137369791667 14.2118055555556  11.2646484375 14.9270833333333  C 10.1155598958333 15.6423611111111  8.86067708333333 16  7.5 16  C 6.13932291666667 16  4.88444010416667 15.6423611111111  3.7353515625 14.9270833333333  C 2.58626302083333 14.2118055555556  1.67643229166667 13.2413194444444  1.005859375 12.015625  C 0.335286458333333 10.7899305555556  0 9.45138888888889  0 8  C 0 6.54861111111111  0.335286458333333 5.21006944444444  1.005859375 3.984375  C 1.67643229166667 2.75868055555556  2.58626302083333 1.78819444444444  3.7353515625 1.07291666666667  C 4.88444010416667 0.357638888888888  6.13932291666667 0  7.5 0  C 8.86067708333333 0  10.1155598958333 0.357638888888888  11.2646484375 1.07291666666667  C 12.4137369791667 1.78819444444444  13.3235677083333 2.75868055555556  13.994140625 3.984375  Z " fill-rule="nonzero" fill="#000000" stroke="none" transform="matrix(1 0 0 1 532 1480 )" />
  </g>
</svg>