<?xml version="1.0" encoding="utf-8"?>
<svg version="1.1" xmlns:xlink="http://www.w3.org/1999/xlink" width="6px" height="6px" xmlns="http://www.w3.org/2000/svg">
  <g transform="matrix(1 0 0 1 -127 -169 )">
    <path d="M 130 169  C 131.68 169  133 170.32  133 172  C 133 173.68  131.68 175  130 175  C 128.32 175  127 173.68  127 172  C 127 170.32  128.32 169  130 169  Z " fill-rule="nonzero" fill="#000000" stroke="none" />
    <path d="M 130 169.5  C 131.4 169.5  132.5 170.6  132.5 172  C 132.5 173.4  131.4 174.5  130 174.5  C 128.6 174.5  127.5 173.4  127.5 172  C 127.5 170.6  128.6 169.5  130 169.5  Z " stroke-width="1" stroke="#000000" fill="none" />
  </g>
</svg>