<?xml version="1.0" encoding="utf-8"?>
<svg version="1.1" xmlns:xlink="http://www.w3.org/1999/xlink" width="249px" height="168px" xmlns="http://www.w3.org/2000/svg">
  <g transform="matrix(1 0 0 1 -726 -385 )">
    <path d="M 75.7375 34.125  C 80.5791666666667 38.2083333333333  83 43.1666666666666  83 49  C 83 54.8333333333333  80.5791666666667 59.7916666666667  75.7375 63.875  C 70.8958333333333 67.9583333333333  65.0166666666667 70  58.1 70  C 51.1833333333333 70  45.3041666666667 67.9583333333333  40.4625 63.875  C 35.6208333333333 59.7916666666667  33.2 54.8333333333333  33.2 49  C 33.2 43.1666666666666  35.6208333333333 38.2083333333333  40.4625 34.125  C 45.3041666666667 30.0416666666666  51.1833333333333 28  58.1 28  C 65.0166666666667 28  70.8958333333333 30.0416666666666  75.7375 34.125  Z M 161.85 45.5  L 215 91  L 215 140  L 34 140  L 34 119  L 74.7 84  L 95.45 101.5  L 161.85 45.5  Z M 231.16796875 15.0390625  C 230.346614583333 14.3463541666667  229.373958333333 14  228.25 14  L 20.75 14  C 19.6260416666667 14  18.6533854166667 14.3463541666667  17.83203125 15.0390625  C 17.0106770833333 15.7317708333333  16.6 16.5520833333333  17 17.5  L 17 150.5  C 16.6 151.447916666667  17.0106770833333 152.268229166667  17.83203125 152.9609375  C 18.6533854166667 153.653645833333  19.6260416666667 154  20.75 154  L 228.25 154  C 229.373958333333 154  230.346614583333 153.653645833333  231.16796875 152.9609375  C 231.989322916667 152.268229166667  232.4 151.447916666667  232 150.5  L 232 17.5  C 232.4 16.5520833333333  231.989322916667 15.7317708333333  231.16796875 15.0390625  Z M 242.9046875 5.14062500000001  C 246.968229166667 8.56770833333333  249 12.6875  249 17.5  L 249 150.5  C 249 155.3125  246.968229166667 159.432291666667  242.9046875 162.859375  C 238.841145833333 166.286458333333  233.95625 168  228.25 168  L 20.75 168  C 15.04375 168  10.1588541666667 166.286458333333  6.0953125 162.859375  C 2.03177083333333 159.432291666667  0 155.3125  0 150.5  L 0 17.5  C 0 12.6875  2.03177083333333 8.56770833333333  6.0953125 5.14062500000001  C 10.1588541666667 1.71354166666665  15.04375 0  20.75 0  L 228.25 0  C 233.95625 0  238.841145833333 1.71354166666665  242.9046875 5.14062500000001  Z " fill-rule="nonzero" fill="#555555" stroke="none" transform="matrix(1 0 0 1 726 385 )" />
  </g>
</svg>