<?xml version="1.0" encoding="utf-8"?>
<svg version="1.1" xmlns:xlink="http://www.w3.org/1999/xlink" width="126px" height="92px" xmlns="http://www.w3.org/2000/svg">
  <g transform="matrix(1 0 0 1 -860 -1375 )">
    <path d="M 38.325 18.6875  C 40.775 20.9236111111111  42 23.6388888888889  42 26.8333333333333  C 42 30.0277777777778  40.775 32.7430555555556  38.325 34.9791666666667  C 35.875 37.2152777777778  32.9 38.3333333333333  29.4 38.3333333333333  C 25.9 38.3333333333333  22.925 37.2152777777778  20.475 34.9791666666667  C 18.025 32.7430555555556  16.8 30.0277777777778  16.8 26.8333333333333  C 16.8 23.6388888888889  18.025 20.9236111111111  20.475 18.6875  C 22.925 16.4513888888889  25.9 15.3333333333333  29.4 15.3333333333333  C 32.9 15.3333333333333  35.875 16.4513888888889  38.325 18.6875  Z M 81.9 24.9166666666667  L 109 49.8333333333333  L 109 76  L 17 76  L 17 65.1666666666667  L 37.8 46  L 48.3 55.5833333333333  L 81.9 24.9166666666667  Z M 116.9765625 8.23567708333333  C 116.5609375 7.85633680555555  116.06875 7.66666666666667  115.5 8  L 10.5 8  C 9.93125 7.66666666666667  9.4390625 7.85633680555555  9.0234375 8.23567708333333  C 8.6078125 8.6150173611111  8.4 9.0642361111111  9 9.58333333333333  L 9 82.4166666666667  C 8.4 82.9357638888889  8.6078125 83.3849826388889  9.0234375 83.7643229166667  C 9.4390625 84.1436631944444  9.93125 84.3333333333333  10.5 84  L 115.5 84  C 116.06875 84.3333333333333  116.5609375 84.1436631944444  116.9765625 83.7643229166667  C 117.3921875 83.3849826388889  117.6 82.9357638888889  117 82.4166666666667  L 117 9.58333333333333  C 117.6 9.0642361111111  117.3921875 8.6150173611111  116.9765625 8.23567708333333  Z M 122.915625 2.81510416666667  C 124.971875 4.69184027777777  126 6.94791666666667  126 9.58333333333333  L 126 82.4166666666667  C 126 85.0520833333333  124.971875 87.3081597222222  122.915625 89.1848958333333  C 120.859375 91.0616319444444  118.3875 92  115.5 92  L 10.5 92  C 7.6125 92  5.140625 91.0616319444444  3.084375 89.1848958333333  C 1.028125 87.3081597222222  0 85.0520833333333  0 82.4166666666667  L 0 9.58333333333333  C 0 6.94791666666667  1.028125 4.69184027777777  3.084375 2.81510416666667  C 5.140625 0.938368055555546  7.6125 0  10.5 0  L 115.5 0  C 118.3875 0  120.859375 0.938368055555546  122.915625 2.81510416666667  Z " fill-rule="nonzero" fill="#555555" stroke="none" transform="matrix(1 0 0 1 860 1375 )" />
  </g>
</svg>