<?xml version="1.0" encoding="utf-8"?>
<svg version="1.1" xmlns:xlink="http://www.w3.org/1999/xlink" width="278px" height="195px" xmlns="http://www.w3.org/2000/svg">
  <g transform="matrix(1 0 0 1 -93 -287 )">
    <path d="M 84.5583333333333 39.609375  C 89.9638888888889 44.3489583333333  92.6666666666667 50.1041666666666  92.6666666666667 56.875  C 92.6666666666667 63.6458333333333  89.9638888888889 69.4010416666667  84.5583333333333 74.140625  C 79.1527777777778 78.8802083333333  72.5888888888889 81.25  64.8666666666667 81.25  C 57.1444444444445 81.25  50.5805555555556 78.8802083333333  45.175 74.140625  C 39.7694444444445 69.4010416666667  37.0666666666667 63.6458333333333  37.0666666666667 56.875  C 37.0666666666667 50.1041666666666  39.7694444444445 44.3489583333333  45.175 39.609375  C 50.5805555555556 34.8697916666666  57.1444444444445 32.5  64.8666666666667 32.5  C 72.5888888888889 32.5  79.1527777777778 34.8697916666666  84.5583333333333 39.609375  Z M 180.7 52.8125  L 241 105.625  L 241 162  L 37 162  L 37 138.125  L 83.4 97.5  L 106.566666666667 117.8125  L 180.7 52.8125  Z M 258.091145833333 17.4560546875  C 257.174131944444 16.6520182291666  256.088194444444 16.25  254.833333333333 17  L 23.1666666666667 17  C 21.9118055555556 16.25  20.8258680555556 16.6520182291666  19.9088541666667 17.4560546875  C 18.9918402777778 18.2600911458333  18.5333333333333 19.2122395833333  19 20.3125  L 19 174.6875  C 18.5333333333333 175.787760416667  18.9918402777778 176.739908854167  19.9088541666667 177.5439453125  C 20.8258680555556 178.347981770833  21.9118055555556 178.75  23.1666666666667 178  L 254.833333333333 178  C 256.088194444444 178.75  257.174131944444 178.347981770833  258.091145833333 177.5439453125  C 259.008159722222 176.739908854167  259.466666666667 175.787760416667  259 174.6875  L 259 20.3125  C 259.466666666667 19.2122395833333  259.008159722222 18.2600911458333  258.091145833333 17.4560546875  Z M 271.194791666667 5.96679687500001  C 275.731597222222 9.94466145833332  278 14.7265625  278 20.3125  L 278 174.6875  C 278 180.2734375  275.731597222222 185.055338541667  271.194791666667 189.033203125  C 266.657986111111 193.011067708333  261.204166666667 195  254.833333333333 195  L 23.1666666666667 195  C 16.7958333333333 195  11.3420138888889 193.011067708333  6.80520833333333 189.033203125  C 2.26840277777778 185.055338541667  0 180.2734375  0 174.6875  L 0 20.3125  C 0 14.7265625  2.26840277777778 9.94466145833332  6.80520833333333 5.96679687500001  C 11.3420138888889 1.98893229166665  16.7958333333333 0  23.1666666666667 0  L 254.833333333333 0  C 261.204166666667 0  266.657986111111 1.98893229166665  271.194791666667 5.96679687500001  Z " fill-rule="nonzero" fill="#000000" stroke="none" transform="matrix(1 0 0 1 93 287 )" />
  </g>
</svg>