<?xml version="1.0" encoding="utf-8"?>
<svg version="1.1" xmlns:xlink="http://www.w3.org/1999/xlink" width="95px" height="59px" xmlns="http://www.w3.org/2000/svg">
  <g transform="matrix(1 0 0 1 -313 -2350 )">
    <path d="M 92.9324776785714 1.70546875  C 94.3108258928571 2.22786458333333  95 3.134375  95 4.425  L 95 54.575  C 95 55.865625  94.3108258928571 56.7721354166667  92.9324776785714 57.29453125  C 92.4730282738095 57.4481770833333  92.03125 57.525  91.6071428571429 57.525  C 90.6529017857143 57.525  89.8577008928572 57.2330729166667  89.2215401785714 56.64921875  L 67.8571428571429 38.0734375  L 67.8571428571429 45.725  C 67.8571428571429 49.3817708333333  66.3639322916667 52.5084635416667  63.3775111607143 55.105078125  C 60.3910900297619 57.7016927083333  56.7950148809524 59  52.5892857142857 59  L 15.2678571428571 59  C 11.0621279761905 59  7.46605282738095 57.7016927083333  4.47963169642857 55.105078125  C 1.49321056547619 52.5084635416667  0 49.3817708333333  0 45.725  L 0 13.275  C 0 9.61822916666666  1.49321056547619 6.49153645833333  4.47963169642857 3.894921875  C 7.46605282738095 1.29830729166666  11.0621279761905 0  15.2678571428571 0  L 52.5892857142857 0  C 56.7950148809524 0  60.3910900297619 1.29830729166666  63.3775111607143 3.894921875  C 66.3639322916667 6.49153645833333  67.8571428571429 9.61822916666666  67.8571428571429 13.275  L 67.8571428571429 20.88046875  L 89.2215401785714 2.35078125  C 89.8577008928572 1.76692708333333  90.6529017857143 1.475  91.6071428571429 1.475  C 92.03125 1.475  92.4730282738095 1.55182291666666  92.9324776785714 1.70546875  Z " fill-rule="nonzero" fill="#d7d7d7" stroke="none" transform="matrix(1 0 0 1 313 2350 )" />
  </g>
</svg>