<?xml version="1.0" encoding="utf-8"?>
<svg version="1.1" xmlns:xlink="http://www.w3.org/1999/xlink" width="177px" height="39px" xmlns="http://www.w3.org/2000/svg">
  <defs>
    <mask fill="white" id="clip2">
      <path d="M 24.1363636363636 39  C 10.6200000000001 39  0 30.4200000000001  0 19.5  C 0 8.57999999999993  10.6200000000001 0  24.1363636363636 0  L 85.4055944055944 0  L 95.3076923076923 0  L 152.863636363636 0  C 166.38 0  177 8.57999999999993  177 19.5  C 177 30.4200000000001  166.38 39  152.863636363636 39  L 24.1363636363636 39  Z " fill-rule="evenodd" />
    </mask>
  </defs>
  <g transform="matrix(1 0 0 1 -523 -2031 )">
    <path d="M 24.1363636363636 39  C 10.6200000000001 39  0 30.4200000000001  0 19.5  C 0 8.57999999999993  10.6200000000001 0  24.1363636363636 0  L 85.4055944055944 0  L 95.3076923076923 0  L 152.863636363636 0  C 166.38 0  177 8.57999999999993  177 19.5  C 177 30.4200000000001  166.38 39  152.863636363636 39  L 24.1363636363636 39  Z " fill-rule="nonzero" fill="#ffffff" stroke="none" fill-opacity="0" transform="matrix(1 0 0 1 523 2031 )" />
    <path d="M 24.1363636363636 39  C 10.6200000000001 39  0 30.4200000000001  0 19.5  C 0 8.57999999999993  10.6200000000001 0  24.1363636363636 0  L 85.4055944055944 0  L 95.3076923076923 0  L 152.863636363636 0  C 166.38 0  177 8.57999999999993  177 19.5  C 177 30.4200000000001  166.38 39  152.863636363636 39  L 24.1363636363636 39  Z " stroke-width="2" stroke="#555555" fill="none" transform="matrix(1 0 0 1 523 2031 )" mask="url(#clip2)" />
  </g>
</svg>