<?xml version="1.0" encoding="utf-8"?>
<svg version="1.1" xmlns:xlink="http://www.w3.org/1999/xlink" width="17px" height="8px" xmlns="http://www.w3.org/2000/svg">
  <g transform="matrix(1 0 0 1 -665 -2048 )">
    <path d="M 16.9016203703704 3.73472041612484  C 16.9672067901235 3.80407455570004  17 3.88383181621153  17 3.9739921976593  C 17 4.07108799306459  16.9672067901235 4.15431296055483  16.9016203703704 4.22366710013004  L 13.1238425925926 7.90637191157347  C 13.0189043209877 8.00346770697876  12.9041280864198 8.02427394885132  12.7795138888889 7.96879063719116  C 12.654899691358 7.90637191157347  12.5925925925926 7.80580840918942  12.5925925925926 7.66710013003901  L 12.5925925925926 5.33680104031209  L 0.314814814814815 5.33680104031209  C 0.222993827160494 5.33680104031209  0.147569444444444 5.30559167750325  0.0885416666666667 5.24317295188557  C 0.0295138888888889 5.18075422626788  0 5.10099696575639  0 5.0039011703511  L 0 3.00650195058518  C 0 2.90940615517989  0.0295138888888889 2.8296488946684  0.0885416666666667 2.76723016905072  C 0.147569444444444 2.70481144343303  0.222993827160494 2.67360208062419  0.314814814814815 2.67360208062419  L 12.5925925925926 2.67360208062419  L 12.5925925925926 0.34330299089727  C 12.5925925925926 0.197659297789337  12.654899691358 0.0970957954052878  12.7795138888889 0.0416124837451237  C 12.9041280864198 -0.0138708279150421  13.0189043209877 0.00346770697875964  13.1238425925926 0.0936280884265281  L 16.9016203703704 3.73472041612484  Z " fill-rule="nonzero" fill="#555555" stroke="none" transform="matrix(1 0 0 1 665 2048 )" />
  </g>
</svg>