<?xml version="1.0" encoding="utf-8"?>
<svg version="1.1" xmlns:xlink="http://www.w3.org/1999/xlink" width="25px" height="25px" xmlns="http://www.w3.org/2000/svg">
  <g transform="matrix(1 0 0 1 -896 -92 )">
    <path d="M 4 9.63541666666667  L 4 20.9309895833333  L 8 20.9309895833333  L 8 9.63541666666667  L 4 9.63541666666667  Z M 7.275390625 7.5439453125  C 7.666015625 7.16959635416667  7.861328125 6.70572916666667  7.861328125 6.15234375  C 7.85047743055556 5.58810763888889  7.65516493055556 5.12152777777778  7.275390625 4.75260416666667  C 6.89561631944444 4.38368055555556  6.39105902777778 4.19921875  5.76171875 4.19921875  C 5.13237847222222 4.19921875  4.61968315972222 4.38368055555556  4.2236328125 4.75260416666667  C 3.82758246527778 5.12152777777778  3.62955729166667 5.58810763888889  3.62955729166667 6.15234375  C 3.62955729166667 6.70572916666667  3.82215711805556 7.16959635416667  4.20735677083333 7.5439453125  C 4.59255642361111 7.91829427083333  5.09440104166667 8.10546875  5.712890625 8.10546875  L 5.72916666666667 8.10546875  C 6.36935763888889 8.10546875  6.884765625 7.91829427083333  7.275390625 7.5439453125  Z M 17.3828125 14.892578125  L 17.3828125 20.9309895833333  L 21.142578125 20.9309895833333  L 21.142578125 14.453125  C 21.142578125 12.7821180555556  20.7465277777778 11.5180121527778  19.9544270833333 10.6608072916667  C 19.1623263888889 9.80360243055556  18.115234375 9.375  16.8131510416667 9.375  C 15.3374565972222 9.375  14.2035590277778 10.009765625  13.4114583333333 11.279296875  L 13.4440104166667 11.279296875  L 13.4440104166667 9.63541666666667  L 9.68424479166667 9.63541666666667  C 9.716796875 10.3515625  9.716796875 14.1167534722222  9.68424479166667 20.9309895833333  L 13.4440104166667 20.9309895833333  L 13.4440104166667 14.6158854166667  C 13.4440104166667 14.2035590277778  13.4819878472222 13.8997395833333  13.5579427083333 13.7044270833333  C 13.720703125 13.3246527777778  13.96484375 13.0018446180556  14.2903645833333 12.7360026041667  C 14.6158854166667 12.4701605902778  15.0173611111111 12.3372395833333  15.4947916666667 12.3372395833333  C 16.7534722222222 12.3372395833333  17.3828125 13.1890190972222  17.3828125 14.892578125  Z M 23.6246744791667 1.37532552083333  C 24.5415581597222 2.29220920138889  25 3.39626736111111  25 4.6875  L 25 20.3125  C 25 21.6037326388889  24.5415581597222 22.7077907986111  23.6246744791667 23.6246744791667  C 22.7077907986111 24.5415581597222  21.6037326388889 25  20.3125 25  L 4.6875 25  C 3.39626736111111 25  2.29220920138889 24.5415581597222  1.37532552083333 23.6246744791667  C 0.458441840277778 22.7077907986111  0 21.6037326388889  0 20.3125  L 0 4.6875  C 0 3.39626736111111  0.458441840277778 2.29220920138889  1.37532552083333 1.37532552083333  C 2.29220920138889 0.458441840277776  3.39626736111111 0  4.6875 0  L 20.3125 0  C 21.6037326388889 0  22.7077907986111 0.458441840277776  23.6246744791667 1.37532552083333  Z " fill-rule="nonzero" fill="#f2f2f2" stroke="none" transform="matrix(1 0 0 1 896 92 )" />
  </g>
</svg>