<?xml version="1.0" encoding="utf-8"?>
<svg version="1.1" xmlns:xlink="http://www.w3.org/1999/xlink" width="25px" height="25px" xmlns="http://www.w3.org/2000/svg">
  <g transform="matrix(1 0 0 1 -856 -92 )">
    <path d="M 4.6875 0  L 20.3125 0  C 21.6037326388889 0  22.7077907986111 0.458441840277776  23.6246744791667 1.37532552083333  C 24.5415581597222 2.29220920138889  25 3.39626736111111  25 4.6875  L 25 20.3125  C 25 21.6037326388889  24.5415581597222 22.7077907986111  23.6246744791667 23.6246744791667  C 22.7077907986111 24.5415581597222  21.6037326388889 25  20.3125 25  L 8.51236979166667 25  C 9.43467881944445 23.6762152777778  10.0206163194444 22.5368923611111  10.2701822916667 21.58203125  C 10.3678385416667 21.2131076388889  10.6553819444444 20.0792100694444  11.1328125 18.1803385416667  C 11.3606770833333 18.603515625  11.7594401041667 18.9670138888889  12.3291015625 19.2708333333333  C 12.8987630208333 19.5746527777778  13.5091145833333 19.7265625  14.16015625 19.7265625  C 16.1241319444444 19.7265625  17.7273220486111 18.9263237847222  18.9697265625 17.3258463541667  C 20.2121310763889 15.7253689236111  20.8333333333333 13.6990017361111  20.8333333333333 11.2467447916667  C 20.8333333333333 10.3352864583333  20.6434461805556 9.45366753472222  20.263671875 8.60188802083333  C 19.8838975694444 7.75010850694444  19.3603515625 6.99598524305556  18.6930338541667 6.33951822916667  C 18.0257161458333 5.68305121527778  17.1983506944444 5.15679253472222  16.2109375 4.7607421875  C 15.2235243055556 4.36469184027778  14.1547309027778 4.16666666666667  13.0045572916667 4.16666666666667  C 11.8760850694444 4.16666666666667  10.8208550347222 4.3212890625  9.8388671875 4.63053385416667  C 8.85687934027778 4.93977864583333  8.02680121527778 5.35481770833333  7.3486328125 5.87565104166667  C 6.67046440972222 6.396484375  6.08723958333333 6.99055989583333  5.59895833333333 7.65787760416667  C 5.11067708333333 8.3251953125  4.74989149305556 9.01963975694444  4.5166015625 9.7412109375  C 4.28331163194444 10.4627821180556  4.16666666666667 11.181640625  4.16666666666667 11.8977864583333  C 4.16666666666667 13.0045572916667  4.38096788194444 13.9811197916667  4.8095703125 14.8274739583333  C 5.23817274305556 15.673828125  5.87022569444444 16.2706163194444  6.70572916666667 16.6178385416667  C 6.84678819444444 16.6720920138889  6.97428385416667 16.6720920138889  7.08821614583333 16.6178385416667  C 7.2021484375 16.5635850694444  7.28081597222222 16.4605034722222  7.32421875 16.30859375  C 7.43272569444444 15.8311631944444  7.51410590277778 15.5002170138889  7.568359375 15.3157552083333  C 7.63346354166667 15.0661892361111  7.57378472222222 14.8383246527778  7.38932291666667 14.6321614583333  C 6.84678819444444 13.9594184027778  6.57552083333333 13.1456163194444  6.57552083333333 12.1907552083333  C 6.57552083333333 10.5631510416667  7.13704427083333 9.17154947916667  8.26009114583333 8.01595052083333  C 9.38313802083333 6.8603515625  10.8506944444444 6.28255208333333  12.6627604166667 6.28255208333333  C 14.2795138888889 6.28255208333333  15.5409071180556 6.72200520833333  16.4469401041667 7.60091145833333  C 17.3529730902778 8.47981770833333  17.8059895833333 9.619140625  17.8059895833333 11.0188802083333  C 17.8059895833333 12.841796875  17.4397786458333 14.3934461805556  16.7073567708333 15.673828125  C 15.9749348958333 16.9542100694444  15.0336371527778 17.5944010416667  13.8834635416667 17.5944010416667  C 13.232421875 17.5944010416667  12.7061631944444 17.3583984375  12.3046875 16.8863932291667  C 11.9032118055556 16.4143880208333  11.7784288194444 15.8528645833333  11.9303385416667 15.2018229166667  C 12.0171440972222 14.8328993055556  12.1609157986111 14.3310546875  12.3616536458333 13.6962890625  C 12.5623914930556 13.0615234375  12.7224392361111 12.5081380208333  12.841796875 12.0361328125  C 12.9611545138889 11.5641276041667  13.0208333333333 11.1599392361111  13.0208333333333 10.8235677083333  C 13.0208333333333 10.2918836805556  12.8770616319444 9.84971788194444  12.5895182291667 9.4970703125  C 12.3019748263889 9.14442274305556  11.8923611111111 8.96809895833333  11.3606770833333 8.96809895833333  C 10.6987847222222 8.96809895833333  10.1372612847222 9.27463107638889  9.67610677083333 9.8876953125  C 9.21495225694445 10.5007595486111  8.984375 11.2575954861111  8.984375 12.158203125  C 8.984375 12.939453125  9.11458333333333 13.5959201388889  9.375 14.1276041666667  L 7.77994791666667 20.8658854166667  C 7.51953125 21.9509548611111  7.48155381944444 23.3289930555556  7.666015625 25  L 4.6875 25  C 3.39626736111111 25  2.29220920138889 24.5415581597222  1.37532552083333 23.6246744791667  C 0.458441840277778 22.7077907986111  0 21.6037326388889  0 20.3125  L 0 4.6875  C 0 3.39626736111111  0.458441840277778 2.29220920138889  1.37532552083333 1.37532552083333  C 2.29220920138889 0.458441840277776  3.39626736111111 0  4.6875 0  Z " fill-rule="nonzero" fill="#f2f2f2" stroke="none" transform="matrix(1 0 0 1 856 92 )" />
  </g>
</svg>