<?xml version="1.0" encoding="utf-8"?>
<svg version="1.1" xmlns:xlink="http://www.w3.org/1999/xlink" width="19px" height="17px" xmlns="http://www.w3.org/2000/svg">
  <defs>
    <mask fill="white" id="clip3">
      <path d="M 9.96651785714286 16.80078125  C 9.83928571428572 16.93359375  9.68377976190476 17  9.5 17  C 9.31622023809524 17  9.16071428571429 16.93359375  9.03348214285714 16.80078125  L 2.41741071428571 10.1380208333333  C 2.34672619047619 10.0789930555556  2.2495349702381 9.98307291666667  2.12583705357143 9.85026041666667  C 2.00213913690476 9.71744791666667  1.80598958333333 9.47580295138889  1.53738839285714 9.12532552083333  C 1.26878720238095 8.77484809027778  1.02845982142857 8.41514756944444  0.81640625 8.04622395833333  C 0.604352678571428 7.67730034722222  0.415271577380952 7.23090277777778  0.249162946428571 6.70703125  C 0.0830543154761905 6.18315972222222  0 5.67404513888889  0 5.1796875  C 0 3.55642361111111  0.448846726190476 2.28732638888889  1.34654017857143 1.37239583333333  C 2.24423363095238 0.457465277777778  3.48474702380952 0  5.06808035714286 0  C 5.50632440476191 0  5.95340401785714 0.0793185763888878  6.40931919642857 0.237955729166667  C 6.865234375 0.396592881944443  7.28934151785714 0.610568576388888  7.681640625 0.8798828125  C 8.07393973214286 1.14919704861111  8.41145833333334 1.40190972222222  8.69419642857143 1.63802083333333  C 8.97693452380953 1.87413194444444  9.24553571428571 2.125  9.5 2.390625  C 9.75446428571428 2.125  10.0230654761905 1.87413194444444  10.3058035714286 1.63802083333333  C 10.5885416666667 1.40190972222222  10.9260602678571 1.14919704861111  11.318359375 0.8798828125  C 11.7106584821429 0.610568576388888  12.134765625 0.396592881944443  12.5906808035714 0.237955729166667  C 13.0465959821429 0.0793185763888878  13.4936755952381 0  13.9319196428571 0  C 15.5152529761905 0  16.7557663690476 0.457465277777778  17.6534598214286 1.37239583333333  C 18.5511532738095 2.28732638888889  19 3.55642361111111  19 5.1796875  C 19 6.81032986111111  18.190662202381 8.47048611111111  16.5719866071429 10.16015625  L 9.96651785714286 16.80078125  Z " fill-rule="evenodd" />
    </mask>
  </defs>
  <g transform="matrix(1 0 0 1 -1077 -1727 )">
    <path d="M 9.96651785714286 16.80078125  C 9.83928571428572 16.93359375  9.68377976190476 17  9.5 17  C 9.31622023809524 17  9.16071428571429 16.93359375  9.03348214285714 16.80078125  L 2.41741071428571 10.1380208333333  C 2.34672619047619 10.0789930555556  2.2495349702381 9.98307291666667  2.12583705357143 9.85026041666667  C 2.00213913690476 9.71744791666667  1.80598958333333 9.47580295138889  1.53738839285714 9.12532552083333  C 1.26878720238095 8.77484809027778  1.02845982142857 8.41514756944444  0.81640625 8.04622395833333  C 0.604352678571428 7.67730034722222  0.415271577380952 7.23090277777778  0.249162946428571 6.70703125  C 0.0830543154761905 6.18315972222222  0 5.67404513888889  0 5.1796875  C 0 3.55642361111111  0.448846726190476 2.28732638888889  1.34654017857143 1.37239583333333  C 2.24423363095238 0.457465277777778  3.48474702380952 0  5.06808035714286 0  C 5.50632440476191 0  5.95340401785714 0.0793185763888878  6.40931919642857 0.237955729166667  C 6.865234375 0.396592881944443  7.28934151785714 0.610568576388888  7.681640625 0.8798828125  C 8.07393973214286 1.14919704861111  8.41145833333334 1.40190972222222  8.69419642857143 1.63802083333333  C 8.97693452380953 1.87413194444444  9.24553571428571 2.125  9.5 2.390625  C 9.75446428571428 2.125  10.0230654761905 1.87413194444444  10.3058035714286 1.63802083333333  C 10.5885416666667 1.40190972222222  10.9260602678571 1.14919704861111  11.318359375 0.8798828125  C 11.7106584821429 0.610568576388888  12.134765625 0.396592881944443  12.5906808035714 0.237955729166667  C 13.0465959821429 0.0793185763888878  13.4936755952381 0  13.9319196428571 0  C 15.5152529761905 0  16.7557663690476 0.457465277777778  17.6534598214286 1.37239583333333  C 18.5511532738095 2.28732638888889  19 3.55642361111111  19 5.1796875  C 19 6.81032986111111  18.190662202381 8.47048611111111  16.5719866071429 10.16015625  L 9.96651785714286 16.80078125  Z " fill-rule="nonzero" fill="#ffffff" stroke="none" fill-opacity="0" transform="matrix(1 0 0 1 1077 1727 )" />
    <path d="M 9.96651785714286 16.80078125  C 9.83928571428572 16.93359375  9.68377976190476 17  9.5 17  C 9.31622023809524 17  9.16071428571429 16.93359375  9.03348214285714 16.80078125  L 2.41741071428571 10.1380208333333  C 2.34672619047619 10.0789930555556  2.2495349702381 9.98307291666667  2.12583705357143 9.85026041666667  C 2.00213913690476 9.71744791666667  1.80598958333333 9.47580295138889  1.53738839285714 9.12532552083333  C 1.26878720238095 8.77484809027778  1.02845982142857 8.41514756944444  0.81640625 8.04622395833333  C 0.604352678571428 7.67730034722222  0.415271577380952 7.23090277777778  0.249162946428571 6.70703125  C 0.0830543154761905 6.18315972222222  0 5.67404513888889  0 5.1796875  C 0 3.55642361111111  0.448846726190476 2.28732638888889  1.34654017857143 1.37239583333333  C 2.24423363095238 0.457465277777778  3.48474702380952 0  5.06808035714286 0  C 5.50632440476191 0  5.95340401785714 0.0793185763888878  6.40931919642857 0.237955729166667  C 6.865234375 0.396592881944443  7.28934151785714 0.610568576388888  7.681640625 0.8798828125  C 8.07393973214286 1.14919704861111  8.41145833333334 1.40190972222222  8.69419642857143 1.63802083333333  C 8.97693452380953 1.87413194444444  9.24553571428571 2.125  9.5 2.390625  C 9.75446428571428 2.125  10.0230654761905 1.87413194444444  10.3058035714286 1.63802083333333  C 10.5885416666667 1.40190972222222  10.9260602678571 1.14919704861111  11.318359375 0.8798828125  C 11.7106584821429 0.610568576388888  12.134765625 0.396592881944443  12.5906808035714 0.237955729166667  C 13.0465959821429 0.0793185763888878  13.4936755952381 0  13.9319196428571 0  C 15.5152529761905 0  16.7557663690476 0.457465277777778  17.6534598214286 1.37239583333333  C 18.5511532738095 2.28732638888889  19 3.55642361111111  19 5.1796875  C 19 6.81032986111111  18.190662202381 8.47048611111111  16.5719866071429 10.16015625  L 9.96651785714286 16.80078125  Z " stroke-width="4" stroke="#333333" fill="none" transform="matrix(1 0 0 1 1077 1727 )" mask="url(#clip3)" />
  </g>
</svg>