<?xml version="1.0" encoding="utf-8"?>
<svg version="1.1" xmlns:xlink="http://www.w3.org/1999/xlink" width="14px" height="13px" xmlns="http://www.w3.org/2000/svg">
  <g transform="matrix(1 0 0 1 -1073 -50 )">
    <path d="M 7.34375 12.84765625  C 7.25 12.94921875  7.13541666666667 13  7 13  C 6.86458333333333 13  6.75 12.94921875  6.65625 12.84765625  L 1.78125 7.75260416666667  C 1.72916666666667 7.70746527777778  1.65755208333333 7.63411458333333  1.56640625 7.53255208333333  C 1.47526041666667 7.43098958333333  1.33072916666667 7.24620225694444  1.1328125 6.97819010416667  C 0.934895833333333 6.71017795138889  0.7578125 6.43511284722222  0.6015625 6.15299479166667  C 0.4453125 5.87087673611111  0.305989583333333 5.52951388888889  0.18359375 5.12890625  C 0.0611979166666667 4.72829861111111  0 4.33897569444444  0 3.9609375  C 0 2.71961805555555  0.330729166666667 1.74913194444444  0.9921875 1.04947916666667  C 1.65364583333333 0.349826388888889  2.56770833333333 0  3.734375 0  C 4.05729166666667 0  4.38671875 0.0606553819444436  4.72265625 0.181966145833334  C 5.05859375 0.303276909722221  5.37109375 0.466905381944444  5.66015625 0.6728515625  C 5.94921875 0.878797743055555  6.19791666666667 1.07204861111111  6.40625 1.25260416666667  C 6.61458333333333 1.43315972222222  6.8125 1.625  7 1.828125  C 7.1875 1.625  7.38541666666667 1.43315972222222  7.59375 1.25260416666667  C 7.80208333333333 1.07204861111111  8.05078125 0.878797743055555  8.33984375 0.6728515625  C 8.62890625 0.466905381944444  8.94140625 0.303276909722221  9.27734375 0.181966145833334  C 9.61328125 0.0606553819444436  9.94270833333333 0  10.265625 0  C 11.4322916666667 0  12.3463541666667 0.349826388888889  13.0078125 1.04947916666667  C 13.6692708333333 1.74913194444444  14 2.71961805555555  14 3.9609375  C 14 5.20789930555556  13.4036458333333 6.47743055555556  12.2109375 7.76953125  L 7.34375 12.84765625  Z " fill-rule="nonzero" fill="#000000" stroke="none" transform="matrix(1 0 0 1 1073 50 )" />
  </g>
</svg>