<?xml version="1.0" encoding="utf-8"?>
<svg version="1.1" xmlns:xlink="http://www.w3.org/1999/xlink" width="11px" height="11px" xmlns="http://www.w3.org/2000/svg">
  <g transform="matrix(1 0 0 1 -1113 -56 )">
    <path d="M 1118.5 56  C 1121.58 56  1124 58.42  1124 61.5  C 1124 64.58  1121.58 67  1118.5 67  C 1115.42 67  1113 64.58  1113 61.5  C 1113 58.42  1115.42 56  1118.5 56  Z " fill-rule="nonzero" fill="#000000" stroke="none" />
    <path d="M 1118.5 56.5  C 1121.3 56.5  1123.5 58.7  1123.5 61.5  C 1123.5 64.3  1121.3 66.5  1118.5 66.5  C 1115.7 66.5  1113.5 64.3  1113.5 61.5  C 1113.5 58.7  1115.7 56.5  1118.5 56.5  Z " stroke-width="1" stroke="#000000" fill="none" />
  </g>
</svg>