<?xml version="1.0" encoding="utf-8"?>
<svg version="1.1" xmlns:xlink="http://www.w3.org/1999/xlink" width="33px" height="24px" xmlns="http://www.w3.org/2000/svg">
  <g transform="matrix(1 0 0 1 -87 -663 )">
    <path d="M 10.2743055555556 21.1704545454545  C 10.7581018518519 20.7386363636364  11 20.2272727272727  11 19.6363636363636  C 11 19.0454545454545  10.7581018518519 18.5340909090909  10.2743055555556 18.1022727272727  C 9.79050925925926 17.6704545454545  9.21759259259259 17.4545454545455  8.55555555555556 17.4545454545455  C 7.89351851851852 17.4545454545455  7.32060185185185 17.6704545454545  6.83680555555556 18.1022727272727  C 6.35300925925926 18.5340909090909  6.11111111111111 19.0454545454545  6.11111111111111 19.6363636363636  C 6.11111111111111 20.2272727272727  6.35300925925926 20.7386363636364  6.83680555555556 21.1704545454545  C 7.32060185185185 21.6022727272727  7.89351851851852 21.8181818181818  8.55555555555556 21.8181818181818  C 9.21759259259259 21.8181818181818  9.79050925925926 21.6022727272727  10.2743055555556 21.1704545454545  Z M 3.66666666666667 10.3977272727273  L 3.66666666666667 10.9090909090909  L 11 10.9090909090909  L 11 6.54545454545455  L 7.98263888888889 6.54545454545455  C 7.81712962962963 6.54545454545455  7.67708333333333 6.59659090909091  7.5625 6.69886363636364  L 3.83854166666667 10.0227272727273  C 3.72395833333333 10.125  3.66666666666667 10.25  3.66666666666667 10.3977272727273  Z M 27.3854166666667 21.1704545454545  C 27.869212962963 20.7386363636364  28.1111111111111 20.2272727272727  28.1111111111111 19.6363636363636  C 28.1111111111111 19.0454545454545  27.869212962963 18.5340909090909  27.3854166666667 18.1022727272727  C 26.9016203703704 17.6704545454545  26.3287037037037 17.4545454545455  25.6666666666667 17.4545454545455  C 25.0046296296296 17.4545454545455  24.431712962963 17.6704545454545  23.9479166666667 18.1022727272727  C 23.4641203703704 18.5340909090909  23.2222222222222 19.0454545454545  23.2222222222222 19.6363636363636  C 23.2222222222222 20.2272727272727  23.4641203703704 20.7386363636364  23.9479166666667 21.1704545454545  C 24.431712962963 21.6022727272727  25.0046296296296 21.8181818181818  25.6666666666667 21.8181818181818  C 26.3287037037037 21.8181818181818  26.9016203703704 21.6022727272727  27.3854166666667 21.1704545454545  Z M 32.6371527777778 0.323863636363638  C 32.8790509259259 0.539772727272724  33 0.795454545454544  33 1.09090909090909  L 33 18.5454545454545  C 33 18.7159090909091  32.974537037037 18.8664772727273  32.9236111111111 18.9971590909091  C 32.8726851851852 19.1278409090909  32.7867476851852 19.2329545454545  32.6657986111111 19.3125  C 32.544849537037 19.3920454545455  32.4398148148148 19.4573863636364  32.3506944444444 19.5085227272727  C 32.2615740740741 19.5596590909091  32.1119791666667 19.59375  31.9019097222222 19.6107954545455  C 31.6918402777778 19.6278409090909  31.5486111111111 19.6392045454545  31.4722222222222 19.6448863636364  C 31.3958333333333 19.6505681818182  31.2335069444444 19.6505681818182  30.9852430555556 19.6448863636364  C 30.7369791666667 19.6392045454545  30.59375 19.6363636363636  30.5555555555556 19.6363636363636  C 30.5555555555556 20.8409090909091  30.078125 21.8693181818182  29.1232638888889 22.7215909090909  C 28.1684027777778 23.5738636363636  27.0162037037037 24  25.6666666666667 24  C 24.3171296296296 24  23.1649305555556 23.5738636363636  22.2100694444444 22.7215909090909  C 21.2552083333333 21.8693181818182  20.7777777777778 20.8409090909091  20.7777777777778 19.6363636363636  L 13.4444444444444 19.6363636363636  C 13.4444444444444 20.8409090909091  12.9670138888889 21.8693181818182  12.0121527777778 22.7215909090909  C 11.0572916666667 23.5738636363636  9.9050925925926 24  8.55555555555556 24  C 7.20601851851852 24  6.05381944444444 23.5738636363636  5.09895833333333 22.7215909090909  C 4.14409722222222 21.8693181818182  3.66666666666667 20.8409090909091  3.66666666666667 19.6363636363636  L 2.44444444444444 19.6363636363636  C 2.40625 19.6363636363636  2.26302083333333 19.6392045454545  2.01475694444444 19.6448863636364  C 1.76649305555556 19.6505681818182  1.60416666666667 19.6505681818182  1.52777777777778 19.6448863636364  C 1.45138888888889 19.6392045454545  1.30815972222222 19.6278409090909  1.09809027777778 19.6107954545455  C 0.888020833333334 19.59375  0.738425925925926 19.5596590909091  0.649305555555556 19.5085227272727  C 0.560185185185185 19.4573863636364  0.455150462962963 19.3920454545455  0.334201388888889 19.3125  C 0.213252314814815 19.2329545454545  0.127314814814815 19.1278409090909  0.0763888888888889 18.9971590909091  C 0.0254629629629631 18.8664772727273  0 18.7159090909091  0 18.5454545454545  C 0 18.25  0.120949074074074 17.9943181818182  0.362847222222222 17.7784090909091  C 0.604745370370371 17.5625  0.891203703703704 17.4545454545455  1.22222222222222 17.4545454545455  L 1.22222222222222 12  C 1.22222222222222 11.9090909090909  1.21903935185185 11.7102272727273  1.21267361111111 11.4034090909091  C 1.20630787037037 11.0965909090909  1.20630787037037 10.8806818181818  1.21267361111111 10.7556818181818  C 1.21903935185185 10.6306818181818  1.2349537037037 10.4346590909091  1.26041666666667 10.1676136363636  C 1.28587962962963 9.90056818181818  1.32725694444444 9.69034090909091  1.38454861111111 9.53693181818182  C 1.44184027777778 9.38352272727273  1.53096064814815 9.21022727272727  1.65190972222222 9.01704545454546  C 1.7728587962963 8.82386363636364  1.91608796296296 8.65340909090909  2.08159722222222 8.50568181818182  L 5.86284722222222 5.13068181818182  C 6.10474537037037 4.91477272727273  6.42621527777778 4.73295454545454  6.82725694444444 4.58522727272727  C 7.22829861111111 4.4375  7.60069444444445 4.36363636363636  7.94444444444444 4.36363636363636  L 11 4.36363636363636  L 11 1.09090909090909  C 11 0.795454545454544  11.1209490740741 0.539772727272724  11.3628472222222 0.323863636363638  C 11.6047453703704 0.107954545454543  11.8912037037037 0  12.2222222222222 0  L 31.7777777777778 0  C 32.1087962962963 0  32.3952546296296 0.107954545454543  32.6371527777778 0.323863636363638  Z " fill-rule="nonzero" fill="#000000" stroke="none" transform="matrix(1 0 0 1 87 663 )" />
  </g>
</svg>