<?xml version="1.0" encoding="utf-8"?>
<svg version="1.1" xmlns:xlink="http://www.w3.org/1999/xlink" width="25px" height="25px" xmlns="http://www.w3.org/2000/svg">
  <g transform="matrix(1 0 0 1 -454 -662 )">
    <path d="M 20.21484375 20.21484375  C 20.6271701388889 19.8025173611111  20.8333333333333 19.3142361111111  20.8333333333333 18.75  C 20.8333333333333 18.1857638888889  20.6271701388889 17.6974826388889  20.21484375 17.28515625  C 19.8025173611111 16.8728298611111  19.3142361111111 16.6666666666667  18.75 16.6666666666667  C 18.1857638888889 16.6666666666667  17.6974826388889 16.8728298611111  17.28515625 17.28515625  C 16.8728298611111 17.6974826388889  16.6666666666667 18.1857638888889  16.6666666666667 18.75  C 16.6666666666667 19.3142361111111  16.8728298611111 19.8025173611111  17.28515625 20.21484375  C 17.6974826388889 20.6271701388889  18.1857638888889 20.8333333333333  18.75 20.8333333333333  C 19.3142361111111 20.8333333333333  19.8025173611111 20.6271701388889  20.21484375 20.21484375  Z M 7.71484375 7.71484375  C 8.12717013888889 7.30251736111111  8.33333333333333 6.81423611111111  8.33333333333333 6.25  C 8.33333333333333 5.68576388888889  8.12717013888889 5.19748263888889  7.71484375 4.78515625  C 7.30251736111111 4.37282986111111  6.81423611111111 4.16666666666667  6.25 4.16666666666667  C 5.68576388888889 4.16666666666667  5.19748263888889 4.37282986111111  4.78515625 4.78515625  C 4.37282986111111 5.19748263888889  4.16666666666667 5.68576388888889  4.16666666666667 6.25  C 4.16666666666667 6.81423611111111  4.37282986111111 7.30251736111111  4.78515625 7.71484375  C 5.19748263888889 8.12717013888889  5.68576388888889 8.33333333333333  6.25 8.33333333333333  C 6.81423611111111 8.33333333333333  7.30251736111111 8.12717013888889  7.71484375 7.71484375  Z M 23.1689453125 14.3310546875  C 24.3896484375 15.5517578125  25 17.0247395833333  25 18.75  C 25 20.4752604166667  24.3896484375 21.9482421875  23.1689453125 23.1689453125  C 21.9482421875 24.3896484375  20.4752604166667 25  18.75 25  C 17.0247395833333 25  15.5517578125 24.3896484375  14.3310546875 23.1689453125  C 13.1103515625 21.9482421875  12.5 20.4752604166667  12.5 18.75  C 12.5 17.0247395833333  13.1103515625 15.5517578125  14.3310546875 14.3310546875  C 15.5517578125 13.1103515625  17.0247395833333 12.5  18.75 12.5  C 20.4752604166667 12.5  21.9482421875 13.1103515625  23.1689453125 14.3310546875  Z M 23.1282552083333 0.309244791666666  C 23.3344184027778 0.515407986111108  23.4375 0.759548611111108  23.4375 1.04166666666667  C 23.4375 1.25868055555556  23.3669704861111 1.46484375  23.2259114583333 1.66015625  L 6.03841145833333 24.5768229166667  C 5.83224826388889 24.8589409722222  5.55555555555556 25  5.20833333333333 25  L 2.60416666666667 25  C 2.32204861111111 25  2.07790798611111 24.8969184027778  1.87174479166667 24.6907552083333  C 1.66558159722222 24.4845920138889  1.5625 24.2404513888889  1.5625 23.9583333333333  C 1.5625 23.7413194444444  1.63302951388889 23.53515625  1.77408854166667 23.33984375  L 18.9615885416667 0.423177083333334  C 19.1677517361111 0.141059027777776  19.4444444444444 0  19.7916666666667 0  L 22.3958333333333 0  C 22.6779513888889 0  22.9220920138889 0.103081597222221  23.1282552083333 0.309244791666666  Z M 10.6689453125 1.8310546875  C 11.8896484375 3.0517578125  12.5 4.52473958333333  12.5 6.25  C 12.5 7.97526041666667  11.8896484375 9.4482421875  10.6689453125 10.6689453125  C 9.4482421875 11.8896484375  7.97526041666667 12.5  6.25 12.5  C 4.52473958333333 12.5  3.0517578125 11.8896484375  1.8310546875 10.6689453125  C 0.6103515625 9.4482421875  0 7.97526041666667  0 6.25  C 0 4.52473958333333  0.6103515625 3.0517578125  1.8310546875 1.8310546875  C 3.0517578125 0.6103515625  4.52473958333333 0  6.25 0  C 7.97526041666667 0  9.4482421875 0.6103515625  10.6689453125 1.8310546875  Z " fill-rule="nonzero" fill="#000000" stroke="none" transform="matrix(1 0 0 1 454 662 )" />
  </g>
</svg>